<?xml version="1.0" encoding="utf-8"?>
<!-- Generator: Adobe Illustrator 22.1.0, SVG Export Plug-In . SVG Version: 6.00 Build 0)  -->
<svg version="1.1" id="Layer_1" xmlns="http://www.w3.org/2000/svg" xmlns:xlink="http://www.w3.org/1999/xlink" x="0px" y="0px"
	 viewBox="0 0 512 512" style="enable-background:new 0 0 512 512;" xml:space="preserve">
<g>
	<path d="M143.5,115.4L87.2,59.1H59.1v28.1l56.2,56.2L143.5,115.4z M171.6,31h28.1v56.2h-28.1V31z M284.1,171.6h56.2v28.1h-56.2
		V171.6z M312.2,87.2V59.1h-28.1l-56.2,56.2l28.1,28.1L312.2,87.2z M31,171.6h56.2v28.1H31V171.6z M171.6,284.1h28.1v56.2h-28.1
		V284.1z M59.1,284.1v28.1h28.1l56.2-56.2l-28.1-28.1L59.1,284.1z M474.8,418.6L195.3,139.1c-8.2-8.2-21.6-8.2-29.8,0l-26.4,26.4
		c-8.2,8.2-8.2,21.6,0,29.8l279.5,279.5c8.2,8.2,21.6,8.2,29.8,0l26.4-26.4C483.1,440.2,483.1,426.8,474.8,418.6z M241.9,270.1
		l-84.4-84.4l28.1-28.1L270,242L241.9,270.1z"/>
</g>
</svg>
